<svg xmlns="http://www.w3.org/2000/svg" style="transform:rotate(0deg);transition:.3s" viewBox="0 0 1440 390"><defs><linearGradient id="a" x1="0" x2="0" y1="1" y2="0"><stop offset="0%" stop-color="rgba(33, 150, 243, 1)"/><stop offset="100%" stop-color="rgba(154, 206, 248, 1)"/></linearGradient></defs><path fill="url(#a)" d="m0 234 60 19.5C120 273 240 312 360 299s240-78 360-104 240-13 360-26 240-52 360-32.5S1680 234 1800 260s240 0 360-45.5S2400 104 2520 117s240 104 360 130 240-13 360-6.5 240 58.5 360 39 240-110.5 360-169 240-84.5 360-91 240 6.5 360 26S4920 91 5040 117s240 52 360 32.5 240-84.5 360-117 240-32.5 360-13S6360 78 6480 78s240-39 360-13 240 117 360 175.5 240 84.5 360 52S7800 169 7920 117s240-65 360-32.5S8520 195 8580 234l60 39v117H0Z" style="transform:translate(0,0);opacity:1"/><defs><linearGradient id="b" x1="0" x2="0" y1="1" y2="0"><stop offset="0%" stop-color="rgba(33, 150, 243, 1)"/><stop offset="100%" stop-color="rgba(154, 206, 248, 1)"/></linearGradient></defs><path fill="url(#b)" d="m0 78 60 6.5c60 6.5 180 19.5 300 13s240-32.5 360-13 240 84.5 360 78 240-84.5 360-104S1680 78 1800 104s240 39 360 65 240 65 360 58.5 240-58.5 360-58.5 240 52 360 91 240 65 360 65 240-26 360-52 240-52 360-58.5 240 6.5 360 32.5 240 65 360 58.5 240-58.5 360-117S5640 65 5760 91s240 143 360 195 240 39 360 19.5 240-45.5 360-97.5 240-130 360-143 240 39 360 78 240 65 360 91 240 52 360 52 240-26 300-39l60-13v156H0Z" style="transform:translate(0,50px);opacity:.9"/></svg>