<svg xmlns="http://www.w3.org/2000/svg" style="transform:rotate(0deg);transition:.3s" viewBox="0 0 1440 490"><defs><linearGradient id="a" x1="0" x2="0" y1="1" y2="0"><stop offset="0%" stop-color="rgba(33, 150, 243, 1)"/><stop offset="100%" stop-color="rgba(154, 206, 248, 1)"/></linearGradient></defs><path fill="url(#a)" d="m0 294 80 24.5c80 24.5 240 73.5 400 57.2C640 359 800 278 960 245c160-33 320-16 480-32.7 160-16.3 320-65.3 480-40.8s320 122.5 480 155.2c160 32.3 320 .3 480-57.2S3200 131 3360 147s320 131 480 163.3c160 32.7 320-16.3 480-8.1 160 7.8 320 73.8 480 49 160-24.2 320-139.2 480-212.4C5440 65 5600 33 5760 24.5s320 8.5 480 32.7C6400 82 6560 114 6720 147s320 65 480 40.8c160-24.8 320-105.8 480-147C7840 0 8000 0 8160 24.5 8320 49 8480 98 8640 98s320-49 480-16.3c160 32.3 320 147.3 480 220.5 160 73.8 320 105.8 480 65.3s320-155.5 480-220.5 320-82 480-40.8c160 40.8 320 138.8 400 187.8l80 49v147H0Z" style="transform:translate(0,0);opacity:1"/><defs><linearGradient id="b" x1="0" x2="0" y1="1" y2="0"><stop offset="0%" stop-color="rgba(33, 150, 243, 1)"/><stop offset="100%" stop-color="rgba(154, 206, 248, 1)"/></linearGradient></defs><path fill="url(#b)" d="m0 98 80 8.2c80 7.8 240 24.8 400 16.3S800 82 960 106.2c160 24.8 320 105.8 480 98C1600 196 1760 98 1920 73.5c160-24.5 320 24.5 480 57.2 160 32.3 320 49.3 480 81.6 160 32.7 320 81.7 480 73.5 160-7.8 320-73.8 480-73.5 160-.3 320 65.7 480 114.4 160 49.3 320 81.3 480 81.6 160-.3 320-32.3 480-65.3s320-65 480-73.5 320 8.5 480 40.8c160 32.7 320 81.7 480 73.5 160-7.8 320-73.8 480-147C7360 163 7520 82 7680 114.3c160 32.7 320 179.7 480 245 160 65.7 320 48.7 480 24.5 160-24.8 320-56.8 480-122.5C9280 196 9440 98 9600 81.7c160-16.7 320 49.3 480 98 160 49.3 320 81.3 480 114.3s320 65 480 65.3c160-.3 320-32.3 400-49l80-16.3v196H0Z" style="transform:translate(0,50px);opacity:.9"/></svg>